<svg aria-hidden="true" style="position: absolute; width: 0; height: 0; overflow: hidden;" version="1.1" xmlns="http://www.w3.org/2000/svg" xmlns:xlink="http://www.w3.org/1999/xlink">
<defs>
<symbol id="button-arrow" viewBox="0 0 32 32">
<path d="M10.586 3.272c-0.375 0.375-0.586 0.884-0.586 1.414s0.211 1.039 0.586 1.414l9.9 9.9-9.9 9.9c-0.364 0.377-0.566 0.882-0.561 1.407s0.215 1.026 0.586 1.397c0.371 0.371 0.872 0.581 1.397 0.586s1.030-0.197 1.407-0.561l11.314-11.314c0.375-0.375 0.586-0.884 0.586-1.414s-0.211-1.039-0.586-1.414l-11.314-11.314c-0.375-0.375-0.884-0.586-1.414-0.586s-1.039 0.211-1.414 0.586z"></path>
</symbol>
<symbol id="icon-dots" viewBox="0 0 177 32">
<path fill="#84a178" style="fill: var(--color1, #84a178)" d="M29.538 14.773c0 8.159-6.612 14.773-14.769 14.773s-14.769-6.614-14.769-14.773c0-8.159 6.612-14.773 14.769-14.773s14.769 6.614 14.769 14.773z"></path>
<path fill="#d9d9d9" style="fill: var(--color2, #d9d9d9)" d="M103.385 14.773c0 8.159-6.612 14.773-14.769 14.773s-14.769-6.614-14.769-14.773c0-8.159 6.612-14.773 14.769-14.773s14.769 6.614 14.769 14.773z"></path>
<path fill="#d9d9d9" style="fill: var(--color2, #d9d9d9)" d="M177.231 14.773c0 8.159-6.612 14.773-14.769 14.773s-14.769-6.614-14.769-14.773c0-8.159 6.612-14.773 14.769-14.773s14.769 6.614 14.769 14.773z"></path>
</symbol>
</defs>
</svg>
